<mxfile host="app.diagrams.net" modified="2022-12-29T01:58:40.268Z" agent="5.0 (Windows NT 10.0; Win64; x64) AppleWebKit/537.36 (KHTML, like Gecko) Chrome/108.0.0.0 Safari/537.36" version="20.7.4" etag="nQX00G2nujisbg5Wy1AH" type="github">
  <diagram id="X5eVyxBBUR0pe63SNbm6" name="Page-1">
    <mxGraphModel dx="882" dy="487" grid="1" gridSize="10" guides="1" tooltips="1" connect="1" arrows="1" fold="1" page="1" pageScale="1" pageWidth="850" pageHeight="1100" math="0" shadow="0">
      <root>
        <mxCell id="0" />
        <mxCell id="1" parent="0" />
        <mxCell id="hTP6V9SCzQXQDpiUwqgs-4" style="edgeStyle=orthogonalEdgeStyle;rounded=0;orthogonalLoop=1;jettySize=auto;html=1;entryX=0.017;entryY=0.622;entryDx=0;entryDy=0;entryPerimeter=0;" edge="1" parent="1" source="hTP6V9SCzQXQDpiUwqgs-1" target="hTP6V9SCzQXQDpiUwqgs-2">
          <mxGeometry relative="1" as="geometry" />
        </mxCell>
        <mxCell id="hTP6V9SCzQXQDpiUwqgs-1" value="Grooming" style="rounded=0;whiteSpace=wrap;html=1;" vertex="1" parent="1">
          <mxGeometry x="40" y="80" width="120" height="60" as="geometry" />
        </mxCell>
        <mxCell id="hTP6V9SCzQXQDpiUwqgs-5" style="edgeStyle=orthogonalEdgeStyle;rounded=0;orthogonalLoop=1;jettySize=auto;html=1;entryX=0;entryY=0.5;entryDx=0;entryDy=0;" edge="1" parent="1" source="hTP6V9SCzQXQDpiUwqgs-2" target="hTP6V9SCzQXQDpiUwqgs-3">
          <mxGeometry relative="1" as="geometry" />
        </mxCell>
        <mxCell id="hTP6V9SCzQXQDpiUwqgs-2" value="Demonstration" style="rounded=0;whiteSpace=wrap;html=1;" vertex="1" parent="1">
          <mxGeometry x="390" y="140" width="120" height="60" as="geometry" />
        </mxCell>
        <mxCell id="hTP6V9SCzQXQDpiUwqgs-3" value="Retrospective" style="rounded=0;whiteSpace=wrap;html=1;" vertex="1" parent="1">
          <mxGeometry x="690" y="200" width="120" height="60" as="geometry" />
        </mxCell>
        <mxCell id="hTP6V9SCzQXQDpiUwqgs-6" value="Sprint of 3 weeks" style="text;html=1;align=center;verticalAlign=middle;resizable=0;points=[];autosize=1;strokeColor=none;fillColor=none;" vertex="1" parent="1">
          <mxGeometry x="190" y="65" width="120" height="30" as="geometry" />
        </mxCell>
        <mxCell id="hTP6V9SCzQXQDpiUwqgs-15" style="edgeStyle=orthogonalEdgeStyle;rounded=0;orthogonalLoop=1;jettySize=auto;html=1;entryX=0;entryY=0.5;entryDx=0;entryDy=0;" edge="1" parent="1" source="hTP6V9SCzQXQDpiUwqgs-7" target="hTP6V9SCzQXQDpiUwqgs-8">
          <mxGeometry relative="1" as="geometry" />
        </mxCell>
        <mxCell id="hTP6V9SCzQXQDpiUwqgs-17" style="edgeStyle=orthogonalEdgeStyle;rounded=0;orthogonalLoop=1;jettySize=auto;html=1;entryX=0.91;entryY=-0.012;entryDx=0;entryDy=0;entryPerimeter=0;" edge="1" parent="1" source="hTP6V9SCzQXQDpiUwqgs-7" target="hTP6V9SCzQXQDpiUwqgs-10">
          <mxGeometry relative="1" as="geometry" />
        </mxCell>
        <mxCell id="hTP6V9SCzQXQDpiUwqgs-7" value="developed" style="rounded=0;whiteSpace=wrap;html=1;" vertex="1" parent="1">
          <mxGeometry x="100" y="320" width="100" height="40" as="geometry" />
        </mxCell>
        <mxCell id="hTP6V9SCzQXQDpiUwqgs-16" style="edgeStyle=orthogonalEdgeStyle;rounded=0;orthogonalLoop=1;jettySize=auto;html=1;entryX=0.4;entryY=0;entryDx=0;entryDy=0;entryPerimeter=0;" edge="1" parent="1" source="hTP6V9SCzQXQDpiUwqgs-8" target="hTP6V9SCzQXQDpiUwqgs-9">
          <mxGeometry relative="1" as="geometry" />
        </mxCell>
        <mxCell id="hTP6V9SCzQXQDpiUwqgs-8" value="dev Enviroment" style="rounded=0;whiteSpace=wrap;html=1;" vertex="1" parent="1">
          <mxGeometry x="310" y="320" width="100" height="40" as="geometry" />
        </mxCell>
        <mxCell id="hTP6V9SCzQXQDpiUwqgs-9" value="QA Enviroment" style="rounded=0;whiteSpace=wrap;html=1;" vertex="1" parent="1">
          <mxGeometry x="320" y="420" width="100" height="40" as="geometry" />
        </mxCell>
        <mxCell id="hTP6V9SCzQXQDpiUwqgs-18" style="edgeStyle=orthogonalEdgeStyle;rounded=0;orthogonalLoop=1;jettySize=auto;html=1;" edge="1" parent="1" source="hTP6V9SCzQXQDpiUwqgs-10" target="hTP6V9SCzQXQDpiUwqgs-14">
          <mxGeometry relative="1" as="geometry">
            <Array as="points">
              <mxPoint x="100" y="505" />
              <mxPoint x="70" y="505" />
            </Array>
          </mxGeometry>
        </mxCell>
        <mxCell id="hTP6V9SCzQXQDpiUwqgs-10" value="Release Branch" style="rounded=0;whiteSpace=wrap;html=1;" vertex="1" parent="1">
          <mxGeometry x="80" y="430" width="100" height="40" as="geometry" />
        </mxCell>
        <mxCell id="hTP6V9SCzQXQDpiUwqgs-19" style="edgeStyle=orthogonalEdgeStyle;rounded=0;orthogonalLoop=1;jettySize=auto;html=1;entryX=0.861;entryY=1.041;entryDx=0;entryDy=0;entryPerimeter=0;" edge="1" parent="1" source="hTP6V9SCzQXQDpiUwqgs-14" target="hTP6V9SCzQXQDpiUwqgs-10">
          <mxGeometry relative="1" as="geometry">
            <Array as="points">
              <mxPoint x="166" y="560" />
            </Array>
          </mxGeometry>
        </mxCell>
        <mxCell id="hTP6V9SCzQXQDpiUwqgs-20" style="edgeStyle=orthogonalEdgeStyle;rounded=0;orthogonalLoop=1;jettySize=auto;html=1;" edge="1" parent="1" source="hTP6V9SCzQXQDpiUwqgs-14" target="hTP6V9SCzQXQDpiUwqgs-7">
          <mxGeometry relative="1" as="geometry">
            <mxPoint x="20" y="350" as="targetPoint" />
            <Array as="points">
              <mxPoint x="30" y="350" />
            </Array>
          </mxGeometry>
        </mxCell>
        <mxCell id="hTP6V9SCzQXQDpiUwqgs-37" style="edgeStyle=orthogonalEdgeStyle;rounded=0;orthogonalLoop=1;jettySize=auto;html=1;entryX=0;entryY=0.5;entryDx=0;entryDy=0;" edge="1" parent="1" source="hTP6V9SCzQXQDpiUwqgs-14" target="hTP6V9SCzQXQDpiUwqgs-21">
          <mxGeometry relative="1" as="geometry">
            <mxPoint x="270" y="670" as="targetPoint" />
            <Array as="points">
              <mxPoint x="230" y="560" />
              <mxPoint x="230" y="645" />
            </Array>
          </mxGeometry>
        </mxCell>
        <mxCell id="hTP6V9SCzQXQDpiUwqgs-14" value="Bug Fix" style="rounded=0;whiteSpace=wrap;html=1;" vertex="1" parent="1">
          <mxGeometry x="10" y="540" width="100" height="40" as="geometry" />
        </mxCell>
        <mxCell id="hTP6V9SCzQXQDpiUwqgs-31" style="edgeStyle=orthogonalEdgeStyle;rounded=0;orthogonalLoop=1;jettySize=auto;html=1;entryX=0;entryY=0.5;entryDx=0;entryDy=0;" edge="1" parent="1" source="hTP6V9SCzQXQDpiUwqgs-21" target="hTP6V9SCzQXQDpiUwqgs-30">
          <mxGeometry relative="1" as="geometry" />
        </mxCell>
        <mxCell id="hTP6V9SCzQXQDpiUwqgs-32" style="edgeStyle=orthogonalEdgeStyle;rounded=0;orthogonalLoop=1;jettySize=auto;html=1;entryX=0;entryY=0.75;entryDx=0;entryDy=0;" edge="1" parent="1" source="hTP6V9SCzQXQDpiUwqgs-21" target="hTP6V9SCzQXQDpiUwqgs-28">
          <mxGeometry relative="1" as="geometry" />
        </mxCell>
        <mxCell id="hTP6V9SCzQXQDpiUwqgs-33" style="edgeStyle=orthogonalEdgeStyle;rounded=0;orthogonalLoop=1;jettySize=auto;html=1;" edge="1" parent="1" source="hTP6V9SCzQXQDpiUwqgs-21" target="hTP6V9SCzQXQDpiUwqgs-29">
          <mxGeometry relative="1" as="geometry" />
        </mxCell>
        <mxCell id="hTP6V9SCzQXQDpiUwqgs-21" value="Stag enviroment" style="rounded=0;whiteSpace=wrap;html=1;" vertex="1" parent="1">
          <mxGeometry x="335" y="630" width="90" height="30" as="geometry" />
        </mxCell>
        <mxCell id="hTP6V9SCzQXQDpiUwqgs-28" value="Prod" style="rounded=0;whiteSpace=wrap;html=1;" vertex="1" parent="1">
          <mxGeometry x="520" y="710" width="90" height="30" as="geometry" />
        </mxCell>
        <mxCell id="hTP6V9SCzQXQDpiUwqgs-29" value="Demo" style="rounded=0;whiteSpace=wrap;html=1;" vertex="1" parent="1">
          <mxGeometry x="520" y="630" width="90" height="30" as="geometry" />
        </mxCell>
        <mxCell id="hTP6V9SCzQXQDpiUwqgs-30" value="UAT" style="rounded=0;whiteSpace=wrap;html=1;" vertex="1" parent="1">
          <mxGeometry x="520" y="545" width="90" height="30" as="geometry" />
        </mxCell>
        <mxCell id="hTP6V9SCzQXQDpiUwqgs-36" value="" style="endArrow=none;dashed=1;html=1;dashPattern=1 3;strokeWidth=2;rounded=0;" edge="1" parent="1">
          <mxGeometry width="50" height="50" relative="1" as="geometry">
            <mxPoint x="670" y="800" as="sourcePoint" />
            <mxPoint x="670" y="800" as="targetPoint" />
            <Array as="points">
              <mxPoint x="320" y="800" />
              <mxPoint x="320" y="490" />
              <mxPoint x="670" y="490" />
            </Array>
          </mxGeometry>
        </mxCell>
        <mxCell id="hTP6V9SCzQXQDpiUwqgs-39" value="Higher Enviroment" style="text;html=1;strokeColor=none;fillColor=none;align=center;verticalAlign=middle;whiteSpace=wrap;rounded=0;" vertex="1" parent="1">
          <mxGeometry x="420" y="530" width="40" height="20" as="geometry" />
        </mxCell>
      </root>
    </mxGraphModel>
  </diagram>
</mxfile>
